HIERARCHY
ROOT Hips
{
	OFFSET 0.000000 89.005402 0.000000
	CHANNELS 6 Xposition Yposition Zposition Xrotation Yrotation Zrotation
	JOINT Spine
	{
		OFFSET 0.116900 10.681000 0.373400
		CHANNELS 3 Xrotation Yrotation Zrotation
		JOINT Spine1
		{
			OFFSET 0.000000 13.840401 0.053500
			CHANNELS 3 Xrotation Yrotation Zrotation
			JOINT Spine2
			{
				OFFSET 0.000000 14.712700 -0.366200
				CHANNELS 3 Xrotation Yrotation Zrotation
				JOINT Neck
				{
					OFFSET 0.000000 35.415497 -3.314200
					CHANNELS 3 Xrotation Yrotation Zrotation
					JOINT Head
					{
						OFFSET 0.000000 16.899200 1.218300
						CHANNELS 3 Xrotation Yrotation Zrotation
						JOINT HeadTop_End
						{
							OFFSET 0.000000 22.206207 2.192500
							CHANNELS 3 Xrotation Yrotation Zrotation
							End Site
							{
								OFFSET 0.000000 22.314178 0.000000
							}
						}
					}
				}
				JOINT LeftShoulder
				{
					OFFSET 12.896400 26.716293 -4.548400
					CHANNELS 3 Xrotation Yrotation Zrotation
					JOINT LeftArm
					{
						OFFSET 19.027000 -4.857010 -1.718400
						CHANNELS 3 Xrotation Yrotation Zrotation
						JOINT LeftForeArm
						{
							OFFSET 24.179897 0.000000 0.000000
							CHANNELS 3 Xrotation Yrotation Zrotation
							JOINT LeftHand
							{
								OFFSET 27.156403 0.000000 0.000000
								CHANNELS 3 Xrotation Yrotation Zrotation
								JOINT LeftHandIndex1
								{
									OFFSET 16.441200 0.000000 0.000000
									CHANNELS 3 Xrotation Yrotation Zrotation
									JOINT LeftHandIndex2
									{
										OFFSET 4.821899 0.000000 0.000000
										CHANNELS 3 Xrotation Yrotation Zrotation
										JOINT LeftHandIndex3
										{
											OFFSET 6.386497 0.000000 0.000000
											CHANNELS 3 Xrotation Yrotation Zrotation
											JOINT LeftHandIndex4
											{
												OFFSET 5.188988 0.000000 0.000000
												CHANNELS 3 Xrotation Yrotation Zrotation
												End Site
												{
													OFFSET -0.178703 5.185913 0.000177
												}
											}
										}
									}
								}
								JOINT LeftHandThumb1
								{
									OFFSET 6.534897 -5.032593 5.900300
									CHANNELS 3 Xrotation Yrotation Zrotation
									JOINT LeftHandThumb2
									{
										OFFSET 3.818176 -2.204422 2.204423
										CHANNELS 3 Xrotation Yrotation Zrotation
										JOINT LeftHandThumb3
										{
											OFFSET 3.252098 -1.877594 1.877601
											CHANNELS 3 Xrotation Yrotation Zrotation
											JOINT LeftHandThumb4
											{
												OFFSET 5.251778 -3.032120 3.032117
												CHANNELS 3 Xrotation Yrotation Zrotation
												End Site
												{
													OFFSET 0.000023 6.780014 0.000000
												}
											}
										}
									}
								}
							}
						}
					}
				}
				JOINT RightShoulder
				{
					OFFSET -12.896300 26.716293 -4.548400
					CHANNELS 3 Xrotation Yrotation Zrotation
					JOINT RightArm
					{
						OFFSET -19.027000 -4.857010 -1.718400
						CHANNELS 3 Xrotation Yrotation Zrotation
						JOINT RightForeArm
						{
							OFFSET -24.179897 0.000000 0.000000
							CHANNELS 3 Xrotation Yrotation Zrotation
							JOINT RightHand
							{
								OFFSET -27.156403 0.000000 0.000000
								CHANNELS 3 Xrotation Yrotation Zrotation
								JOINT RightHandThumb1
								{
									OFFSET -6.591202 -4.852203 5.988100
									CHANNELS 3 Xrotation Yrotation Zrotation
									JOINT RightHandThumb2
									{
										OFFSET -3.818176 -2.204422 2.204423
										CHANNELS 3 Xrotation Yrotation Zrotation
										JOINT RightHandThumb3
										{
											OFFSET -3.252098 -1.877594 1.877601
											CHANNELS 3 Xrotation Yrotation Zrotation
											JOINT RightHandThumb4
											{
												OFFSET -5.251778 -3.032120 3.032117
												CHANNELS 3 Xrotation Yrotation Zrotation
												End Site
												{
													OFFSET -0.000023 6.780014 0.000000
												}
											}
										}
									}
								}
								JOINT RightHandIndex1
								{
									OFFSET -16.029404 0.000000 0.000000
									CHANNELS 3 Xrotation Yrotation Zrotation
									JOINT RightHandIndex2
									{
										OFFSET -5.213303 0.000000 0.000000
										CHANNELS 3 Xrotation Yrotation Zrotation
										JOINT RightHandIndex3
										{
											OFFSET -6.386528 0.000000 0.000000
											CHANNELS 3 Xrotation Yrotation Zrotation
											JOINT RightHandIndex4
											{
												OFFSET -5.189026 0.000000 0.000000
												CHANNELS 3 Xrotation Yrotation Zrotation
												End Site
												{
													OFFSET 0.236702 5.183624 0.001972
												}
											}
										}
									}
								}
							}
						}
					}
				}
			}
		}
	}
	JOINT LeftUpLeg
	{
		OFFSET 14.073000 -7.904099 -1.463000
		CHANNELS 3 Xrotation Yrotation Zrotation
		JOINT LeftLeg
		{
			OFFSET -0.109806 -34.073280 4.093200
			CHANNELS 3 Xrotation Yrotation Zrotation
			JOINT LeftFoot
			{
				OFFSET 0.109806 -29.899420 -6.319000
				CHANNELS 3 Xrotation Yrotation Zrotation
				JOINT LeftToeBase
				{
					OFFSET 1.551100 -14.988700 20.535801
					CHANNELS 3 Xrotation Yrotation Zrotation
					JOINT LeftToe_End
					{
						OFFSET 0.221200 0.570800 13.248301
						CHANNELS 3 Xrotation Yrotation Zrotation
						End Site
						{
							OFFSET 0.000000 13.262435 0.000000
						}
					}
				}
			}
		}
	}
	JOINT RightUpLeg
	{
		OFFSET -13.839300 -7.904099 -1.463000
		CHANNELS 3 Xrotation Yrotation Zrotation
		JOINT RightLeg
		{
			OFFSET 0.109694 -34.073219 4.093300
			CHANNELS 3 Xrotation Yrotation Zrotation
			JOINT RightFoot
			{
				OFFSET -0.109694 -29.899384 -6.319200
				CHANNELS 3 Xrotation Yrotation Zrotation
				JOINT RightToeBase
				{
					OFFSET -1.551100 -14.988700 20.535801
					CHANNELS 3 Xrotation Yrotation Zrotation
					JOINT RightToe_End
					{
						OFFSET -0.221200 0.570900 13.248299
						CHANNELS 3 Xrotation Yrotation Zrotation
						End Site
						{
							OFFSET 0.000000 13.262440 0.000000
						}
					}
				}
			}
		}
	}
}
MOTION
Frames: 6
Frame Time: 0.033333
-61.237877 77.830231 48.684967 44.828830 75.187194 -52.594287 39.459799 -5.789345 0.109149 9.995084 -0.501983 0.788151 9.999637 -0.450110 0.748057 -14.884698 -8.803060 7.411418 -22.766636 -35.411177 15.160643 0.000000 -0.000001 -0.000000 -2.799295 29.813284 6.145913 -70.265557 -30.237165 -81.576720 0.000302 -98.428333 0.000315 6.778005 -12.956396 7.376403 0.001083 -0.123088 1.019939 0.018760 0.509062 -4.222174 0.046166 0.797627 -6.624604 -0.000001 -0.000000 -0.000001 -1.523820 1.026769 5.748129 4.282926 12.048243 1.062101 0.091497 9.046756 3.257604 0.000000 -0.000001 -0.000002 -0.035638 -5.225763 1.189858 690.014615 0.695678 -670.297171 -0.000031 114.337770 0.000032 28.931223 -23.028956 34.617970 -2.270723 -17.676678 -8.853593 5.446554 -17.691551 -0.840371 -0.683117 -6.352119 -2.779735 0.000001 0.000002 -0.000000 0.093210 -1.136996 9.372702 0.338075 -2.145724 17.905368 0.395656 -2.316276 19.384552 -0.000000 0.000001 -0.000000 -42.179318 1.057159 -7.578116 54.996321 -7.914651 8.222205 -16.444304 -16.120655 11.188286 -0.000055 0.000000 -0.000008 -0.000000 0.000000 0.000000 -98.223823 2.261132 6.237023 116.485652 7.250110 -0.126110 0.397756 2.773707 2.564196 -9.578886 0.000057 -0.000020 -0.000001 0.000000 -0.000000 
-60.965172 76.066017 49.959129 77.607608 78.406993 -83.453334 40.378743 -6.062443 2.898226 9.742649 -0.583157 0.088626 9.739335 -0.619716 0.056685 -13.534209 -9.718674 10.616754 -25.672584 -37.604785 13.224455 0.000001 -0.000000 0.000001 -2.994540 26.458527 9.999206 -69.731334 -27.783150 -83.687849 0.000176 -103.953334 0.000185 8.573510 -11.544105 6.322520 -0.000001 -0.011479 0.095040 0.015476 0.462266 -3.833447 0.045155 0.788979 -6.552478 0.000000 0.000002 0.000002 -1.529617 2.355124 5.944554 4.337133 12.714766 1.111414 0.119428 9.379505 3.287851 -0.000002 0.000002 0.000000 0.312915 -3.320467 3.461503 676.054965 -14.781066 -680.470929 0.000025 133.822817 -0.000020 39.202755 -17.474945 57.982774 -2.394440 -19.901634 -9.237630 5.541870 -18.807858 -0.908850 -0.636052 -6.905985 -2.835384 -0.000000 -0.000002 -0.000001 0.232384 -1.786029 14.825115 0.255959 -1.872812 15.563761 0.387847 -2.293980 19.190410 0.000001 -0.000001 0.000001 -44.708817 0.505862 -11.568591 58.612121 -7.907392 9.666507 -17.431679 -18.886909 10.514012 -0.000071 -0.000005 -0.000002 -0.000000 -0.000002 0.000000 -106.422974 3.063116 3.788296 123.775623 6.520493 -0.356558 0.980748 3.178818 2.867059 -8.813840 -0.000022 -0.000001 -0.000000 -0.000001 0.000000 
-60.764519 74.613640 50.907906 110.927654 78.078208 -114.330393 39.851183 -6.118420 5.301228 9.492044 -0.647129 -0.594745 9.480082 -0.770441 -0.619349 -11.205940 -10.334493 12.818620 -27.577896 -40.619173 11.911890 -0.000000 0.000000 0.000000 -2.246964 20.454745 11.935090 -64.960693 -29.737913 -84.332038 0.000269 -101.138948 0.000264 9.548457 -9.219472 5.624791 0.002914 0.201018 -1.665968 0.014806 0.452151 -3.749466 0.042713 0.767279 -6.371424 -0.000001 -0.000001 -0.000003 -1.550320 4.642253 6.283765 4.429411 13.862520 1.195122 0.167192 9.952484 3.339611 -0.000000 -0.000000 -0.000001 0.557567 -1.804602 5.425778 667.011522 -22.074299 -689.363890 0.000004 142.028552 -0.000005 43.896369 -10.145672 69.663592 -2.446414 -20.752133 -9.387275 5.578384 -19.238018 -0.934827 -0.617745 -7.122713 -2.857044 -0.000000 -0.000001 0.000002 1.037540 -3.659131 31.651824 0.213728 -1.714046 14.214390 0.360087 -2.212642 18.484066 0.000001 0.000002 0.000000 -45.562027 0.957437 -15.417948 60.916613 -7.991339 10.551319 -18.003501 -20.598981 10.216302 -0.000402 0.000000 0.000004 0.000000 0.000000 0.000000 -108.262917 4.529133 1.302424 126.886733 5.966308 -0.548728 0.151043 1.884113 1.641093 -7.988745 -0.000024 0.000003 -0.000001 -0.000001 0.000000 
-60.638496 73.607239 51.498512 130.128423 76.643288 -131.273681 38.686359 -5.981916 6.442059 9.276489 -0.682054 -0.851793 9.260482 -0.843233 -0.874186 -9.095948 -10.511373 13.449962 -27.783314 -42.994419 12.178173 -0.000000 0.000002 0.000000 -1.526256 15.495893 11.386069 -59.425931 -35.183923 -84.795501 0.006413 -87.797021 0.006447 8.528213 -7.365443 4.508342 0.011786 0.403388 -3.344601 0.018648 0.507719 -4.211034 0.040150 0.743947 -6.176959 0.000000 -0.000001 0.000000 -1.580238 6.675242 6.587113 4.510395 14.882899 1.268280 0.209289 10.461868 3.385293 -0.000001 0.000001 0.000000 0.627867 -1.573824 6.188189 670.389296 -20.412529 -690.130892 0.000002 135.570048 -0.000004 44.574743 -5.110618 67.950704 -2.418895 -20.307312 -9.308803 5.560273 -19.024443 -0.921940 -0.625877 -7.026414 -2.847420 0.000003 -0.000002 0.000001 3.022112 -5.737166 55.528372 0.302608 -2.032766 16.932522 0.316255 -2.077065 17.313350 0.000001 -0.000000 -0.000001 -45.241158 1.387900 -18.209805 62.238692 -8.161073 10.520517 -18.471302 -20.709028 10.297028 -0.000376 0.000000 0.000001 0.000000 0.000000 0.000000 -104.014676 6.176956 -1.293848 124.636377 6.087636 -0.526000 -1.795963 0.464127 -0.600043 -7.642757 0.000010 0.000001 -0.000000 0.000001 0.000000 
-60.294075 73.014221 51.782932 139.980028 75.878989 -139.562389 37.408666 -5.707893 6.112412 9.153358 -0.690442 -0.480758 9.140857 -0.821168 -0.507884 -8.201545 -10.367279 12.767320 -26.624103 -43.831523 13.706137 0.000002 0.000000 -0.000000 -1.555849 14.317886 8.831232 -56.931864 -41.221838 -87.721424 0.000022 -65.104728 0.000028 6.567933 -6.171437 2.204088 0.018923 0.511100 -4.239062 0.027279 0.613570 -5.091207 0.039593 0.738860 -6.134562 -0.000002 -0.000003 -0.000000 -1.610169 8.212566 6.818147 4.571007 15.654618 1.322859 0.240868 10.847115 3.419630 0.000001 0.000001 0.000000 0.524301 -2.467768 5.638811 685.003442 -10.165619 -686.412920 -0.000018 114.848333 0.000039 45.050278 -3.292927 56.344481 -2.333415 -18.843244 -9.053667 5.497604 -18.288318 -0.877172 -0.656898 -6.659741 -2.810692 -0.000001 -0.000001 -0.000000 5.221346 -6.731237 75.575196 0.670998 -2.984957 25.333026 0.292187 -1.998252 16.636362 -0.000000 -0.000001 0.000000 -44.250600 1.146699 -19.963303 63.093080 -8.300116 10.113555 -19.367140 -19.540790 10.453991 -0.000196 -0.000000 0.000002 0.000000 -0.000000 0.000000 -96.272275 7.376509 -3.851191 116.961361 5.944851 -0.574771 -3.225279 -0.250952 -2.477538 -8.060892 0.000007 0.000002 0.000001 -0.000001 0.000000 
-59.564762 72.645203 51.816898 145.369266 75.676105 -144.118959 36.079122 -5.410819 4.854811 9.181969 -0.685567 0.358720 9.178822 -0.739990 0.320975 -8.713207 -10.103659 11.662884 -25.489288 -43.136972 15.181251 -0.000000 0.000003 -0.000000 -1.906325 17.155991 5.616856 -58.630822 -44.714137 -94.614909 0.000001 -38.601142 0.000007 7.000058 -4.606217 -1.080511 0.023303 0.567156 -4.705077 0.037012 0.714443 -5.931100 0.042610 0.766486 -6.364871 0.000002 -0.000001 -0.000001 -1.656767 10.139337 7.110347 4.646218 16.622042 1.390362 0.280214 11.330017 3.462462 0.000003 0.000001 0.000000 0.301668 -3.503554 4.453831 703.658328 5.440360 -685.154963 -0.001031 84.834098 0.000982 44.664745 -4.295004 41.917684 -2.216387 -16.587278 -8.669141 5.397773 -17.123942 -0.804952 -0.709066 -6.049259 -2.749132 0.000000 0.000000 0.000000 5.950752 -6.876608 81.726178 1.421200 -4.217236 37.233612 0.341284 -2.155677 17.991186 0.000001 -0.000000 -0.000002 -43.055914 0.258077 -21.064698 63.880744 -8.442593 9.469804 -20.674441 -17.969420 10.919347 -0.000060 0.000003 -0.000001 -0.000000 -0.000000 -0.000000 -88.089872 7.826815 -6.276886 105.198662 3.193204 -0.973685 -2.835434 0.076446 -3.054798 -9.335475 -0.000014 -0.000000 -0.000000 0.000001 -0.000001 
